Coordinates
version=1
nRows=9
nColumns=36
inDegrees=yes

Units are S.I. units (second, meters, Newtons, ...)
If the header above contains a line with 'inDegrees', this indicates whether rotational values are in degrees (yes) or radians (no).

endheader
time	pelvis_tilt	pelvis_list	pelvis_rotation	pelvis_tx	pelvis_ty	pelvis_tz	hip_flexion_r	hip_adduction_r	hip_rotation_r	knee_angle_r	knee_angle_r_beta	ankle_angle_r	subtalar_angle_r	mtp_angle_r	hip_flexion_l	hip_adduction_l	hip_rotation_l	knee_angle_l	knee_angle_l_beta	ankle_angle_l	subtalar_angle_l	mtp_angle_l	lumbar_extension	lumbar_bending	lumbar_rotation	arm_flex_r	arm_add_r	arm_rot_r	elbow_flex_r	pro_sup_r	arm_flex_l	arm_add_l	arm_rot_l	elbow_flex_l	pro_sup_l
      8.98333330	    -22.00854966	      2.76750865	     -3.57117411	      0.87927690	      0.69844672	      0.01385267	     65.79587961	     -2.12989390	      9.62403270	     67.47434510	      1.17764948	     24.65591006	    -19.88199412	     -7.49999987	     66.37029953	      2.03804087	      7.12052845	     70.11347939	      1.22371107	     24.64504471	    -19.32053404	     -7.49999987	    -19.92212154	      1.49666317	     -6.48439344	    -10.64904559	    -14.50220314	    -91.16307412	     84.09446627	     83.50938133	    -29.07279718	    -11.69437622	   -222.27121974	     51.79769141	     85.90900784
      9.00000000	    -21.30352562	      2.67375834	     -3.77802722	      0.87927730	      0.69599383	      0.01701578	     66.18566789	     -1.57059374	     10.16040066	     69.56140506	      1.21407555	     24.99863257	    -19.66841678	     -7.49999987	     66.30952497	      2.16380335	      7.53542572	     71.75403509	      1.25234416	     25.00709531	    -20.07953272	     -7.49999987	    -21.50867152	      1.52073072	     -4.77114607	     -8.55924804	    -12.45513317	    -89.81012518	     76.83489706	     82.99190981	    -24.45489221	    -12.71875642	   -220.30589445	     49.08361909	     84.69306722
      9.01666670	    -20.08444238	      2.54016327	     -3.91700606	      0.88139786	      0.68589852	      0.01898491	     66.31113957	     -1.11396851	     10.47753797	     72.38389302	      1.26333726	     26.23856016	    -18.98338776	     -7.49999987	     66.16441655	      2.28113911	      8.02250551	     74.10339996	      1.29334832	     25.89211472	    -20.29813897	     -7.49999987	    -23.53833444	      1.50505458	     -2.46483074	     -7.02894072	    -10.55702237	    -88.47295648	     67.99995349	     81.00604911	    -19.43887953	    -14.72771640	   -219.07971584	     45.53625384	     82.30324369
      9.03333330	    -18.77244931	      2.29944102	     -4.13744989	      0.88673319	      0.67195937	      0.01492292	     66.55945651	     -0.92887446	     10.56546409	     75.60383013	      1.31953576	     27.50584395	    -18.79460127	     -7.49999987	     66.36475746	      2.70534588	      8.56609833	     77.49192844	      1.35248929	     27.15221856	    -20.83717975	     -7.49999987	    -25.22432957	      1.65005400	     -2.49887467	     -3.16830026	    -11.14691087	    -84.77226867	     56.07260786	     80.52358242	    -15.42132832	    -13.85913366	   -215.30790255	     41.06775376	     81.71660694
      9.05000000	    -17.19991476	      2.03734468	     -4.14678656	      0.88782548	      0.66248104	      0.01818763	     66.45744355	     -0.71772645	     10.64723178	     78.78220949	      1.37500895	     29.18008755	    -18.61164114	     -7.49999987	     66.23136541	      2.97917161	      9.12056155	     80.56362159	      1.40610045	     28.27574205	    -21.35858976	     -7.49999987	    -27.54089812	      1.73623816	     -1.75726293	      0.22086012	    -10.41792216	    -81.97207210	     47.38526860	     79.53411183	    -10.31766571	    -13.85588174	   -209.97708258	     35.72016555	     82.54344800
      9.06666670	    -16.12597618	      1.92593316	     -4.08465937	      0.88605729	      0.65241467	      0.01696425	     67.04787381	     -0.68190949	     10.79555269	     81.79087139	      1.42752000	     30.54147919	    -18.40734098	     -7.49999987	     66.75315333	      3.36529104	      9.52408337	     83.43979683	      1.45629918	     29.45713993	    -21.48538022	     -7.49999987	    -29.66691086	      2.05209793	     -0.53689264	      3.80070106	    -10.11208621	    -77.75436507	     39.98746886	     71.97184390	     -3.43264363	    -12.31749317	   -199.27273307	     30.82127239	    103.77388660
      9.08333330	    -14.84462635	      1.78995501	     -4.10417649	      0.89036004	      0.64255094	      0.01444851	     67.19656605	     -0.87253253	     10.87652156	     84.60841263	      1.47669538	     31.92694822	    -17.63382457	     -7.49999987	     66.85043723	      3.86247797	      9.80269784	     86.10994500	      1.50290206	     30.35660764	    -22.27958581	     -7.49999987	    -32.10423451	      2.40052586	      0.05043618	      7.86459632	    -10.08735467	    -70.37440274	     33.21059836	     69.76032260	      1.01046980	     -9.47230085	   -177.30629213	     20.51143689	    107.36742676
      9.10000000	    -12.79665259	      1.97219426	     -4.03961685	      0.90197570	      0.63269886	      0.00650974	     66.15612286	     -1.59345525	     11.66929599	     87.56705833	      1.52833348	     33.28161383	    -16.61758287	     -7.49999987	     65.71944015	      4.98849656	      9.70575510	     88.66470107	      1.54749096	     31.89880968	    -22.74596930	     -7.49999987	    -35.00974305	      2.18682559	      0.66821918	     11.21355924	    -10.78260327	    -55.46163899	     28.06104706	     62.35726456	      2.65707323	     -9.25998269	   -112.94088145	      3.57111186	     94.74710907
      9.11666670	    -11.48253385	      2.10095784	     -3.93389888	      0.91543011	      0.62892815	      0.00443226	     64.93648049	     -2.38495074	     12.23112055	     89.60950832	      1.56398096	     33.95948868	    -16.25573737	     -7.49999987	     64.48601309	      6.05015973	      9.74796920	     90.63687921	      1.58191197	     33.25626205	    -23.15297218	     -7.49999987	    -36.14951505	      2.79664505	      1.55950949	     14.39660267	    -10.86410692	    -43.19464812	     26.60627283	     62.05199767	     11.53210554	     -6.25245123	    -90.18102323	      3.02297650	    102.82728020
